<?xml version="1.0" encoding="utf-8"?>
<!-- Generator: Adobe Illustrator 23.1.0, SVG Export Plug-In . SVG Version: 6.00 Build 0)  -->
<svg version="1.1" id="Layer_1" xmlns="http://www.w3.org/2000/svg" xmlns:xlink="http://www.w3.org/1999/xlink" x="0px" y="0px"
	 viewBox="0 0 28 28" style="enable-background:new 0 0 28 28;" xml:space="preserve">
<style type="text/css">
	.st0{fill:none;}
	.st1{fill:#0B7681;}
</style>
<path class="st0" d="M2,2h24v24H2V2z"/>
<g>
	<path class="st1" d="M12.8,19.1c0-0.3,0-0.6,0-0.7c0-0.9,0.1-1.7,0.4-2.4c0.2-0.5,0.5-1,0.9-1.5c0.3-0.4,0.9-0.9,1.7-1.7
		c0.8-0.7,1.4-1.3,1.6-1.7c0.2-0.4,0.4-0.9,0.4-1.4c0-0.9-0.4-1.7-1.1-2.4s-1.6-1.1-2.7-1.1c-1,0-1.9,0.3-2.5,1
		c-0.7,0.6-1.1,1.6-1.3,3L7.7,9.7c0.2-1.8,0.9-3.2,2-4.2c1.1-1,2.5-1.4,4.3-1.4c1.9,0,3.4,0.5,4.5,1.5c1.1,1,1.7,2.3,1.7,3.7
		c0,0.8-0.2,1.6-0.6,2.3c-0.4,0.7-1.2,1.6-2.3,2.6c-0.8,0.7-1.3,1.2-1.5,1.5c-0.2,0.3-0.4,0.7-0.5,1.1c-0.1,0.4-0.2,1.1-0.2,2.1
		H12.8z M12.7,23.9v-2.7h2.7v2.7H12.7z"/>
</g>
</svg>
